<?xml version="1.0" encoding="utf-8"?>
<!-- Generator: Adobe Illustrator 24.0.3, SVG Export Plug-In . SVG Version: 6.00 Build 0)  -->
<svg version="1.1" id="Capa_1" xmlns="http://www.w3.org/2000/svg" xmlns:xlink="http://www.w3.org/1999/xlink" x="0px" y="0px"
	 viewBox="0 0 347.2 347.2" style="enable-background:new 0 0 347.2 347.2;" xml:space="preserve">
<style type="text/css">
	.st0{fill:#FFFFFF;}
</style>
<g>
	<path class="st0" d="M277.8,5.4C274.2,1.8,269.9,0,265,0c-4.9,0-9.2,1.8-12.8,5.4L157,100.5H82.2c-5,0-9.2,1.8-12.9,5.4
		c-3.6,3.6-5.4,7.9-5.4,12.8v109.6c0,4.9,1.8,9.2,5.4,12.8c3.6,3.6,7.9,5.4,12.9,5.4H157l95.1,95.1c3.6,3.6,7.9,5.4,12.8,5.4
		c5,0,9.2-1.8,12.9-5.4c3.6-3.6,5.4-7.9,5.4-12.8V18.3C283.2,13.3,281.4,9,277.8,5.4z"/>
</g>
</svg>
